<?xml version="1.0" encoding="UTF-8"?>
<svg id="Layer_2" xmlns="http://www.w3.org/2000/svg" version="1.1" xmlns:xlink="http://www.w3.org/1999/xlink" viewBox="0 0 146.9 169.7">
  <!-- Generator: Adobe Illustrator 30.1.0, SVG Export Plug-In . SVG Version: 2.1.1 Build 136)  -->
  <defs>
    <style>
      .st0 {
        stroke: #2bb673;
      }

      .st0, .st1, .st2, .st3, .st4, .st5, .st6, .st7, .st8, .st9, .st10, .st11, .st12, .st13, .st14 {
        stroke-miterlimit: 10;
      }

      .st0, .st1, .st2, .st3, .st4, .st5, .st7, .st8, .st9, .st10, .st11, .st12, .st13, .st14 {
        fill: none;
      }

      .st1 {
        stroke-linecap: round;
        stroke-width: 10px;
      }

      .st1, .st3, .st6, .st10, .st12 {
        stroke: #231f20;
      }

      .st2 {
        stroke: #006838;
      }

      .st3 {
        stroke-width: 6px;
      }

      .st4 {
        stroke: #fbb040;
      }

      .st4, .st11, .st13 {
        stroke-width: 3px;
      }

      .st5 {
        stroke: #b4c9cf;
      }

      .st5, .st6 {
        stroke-width: 4px;
      }

      .st6 {
        fill: #c5d8d4;
      }

      .st7 {
        stroke: #c97417;
      }

      .st8 {
        stroke: #da1c5c;
      }

      .st9 {
        stroke: #00aeef;
      }

      .st10 {
        stroke-width: .5px;
      }

      .st11 {
        stroke: #f15a29;
      }

      .st12 {
        stroke-width: 2px;
      }

      .st13 {
        stroke: #ec008c;
      }

      .st15 {
        fill: url(#linear-gradient);
      }

      .st14 {
        stroke: #000cef;
      }
    </style>
    <linearGradient id="linear-gradient" x1="-28.2" y1="673.9" x2="16.4" y2="673.9" gradientTransform="translate(-632.4 77.9) rotate(90) scale(1 -1)" gradientUnits="userSpaceOnUse">
      <stop offset=".3" stop-color="#c5d8d4" stop-opacity="0"/>
      <stop offset=".5" stop-color="#c5d8d4" stop-opacity=".4"/>
      <stop offset=".6" stop-color="#c5d8d4" stop-opacity=".6"/>
      <stop offset=".7" stop-color="#c5d8d4" stop-opacity=".9"/>
      <stop offset=".8" stop-color="#c5d8d4"/>
      <stop offset=".9" stop-color="#c5d8d4"/>
      <stop offset="1" stop-color="#c5d8d4"/>
    </linearGradient>
  </defs>
  <polygon class="st6" points="144.9 43.6 73.5 2.3 2 43.6 2 126.1 73.5 167.4 144.9 126.1 144.9 43.6"/>
  <line class="st10" x1="19" y1="52.5" x2="65.6" y2="52.5"/>
  <line class="st10" x1="19" y1="56.7" x2="65.6" y2="56.7"/>
  <line class="st10" x1="19" y1="60.9" x2="65.6" y2="60.9"/>
  <line class="st0" x1="22.2" y1="52.5" x2="25.5" y2="52.5"/>
  <line class="st0" x1="22.2" y1="60.9" x2="25.5" y2="60.9"/>
  <line class="st2" x1="22.2" y1="56.7" x2="26.1" y2="56.7"/>
  <line class="st9" x1="51.9" y1="52.5" x2="65.1" y2="52.5"/>
  <line class="st9" x1="51.9" y1="60.9" x2="65.1" y2="60.9"/>
  <line class="st14" x1="56.5" y1="56.7" x2="65.1" y2="56.7"/>
  <line class="st8" x1="29.7" y1="52.5" x2="34" y2="52.5"/>
  <line class="st8" x1="29.7" y1="60.9" x2="36.3" y2="60.9"/>
  <line class="st7" x1="40.1" y1="52.5" x2="47.9" y2="52.5"/>
  <line class="st7" x1="40.1" y1="60.9" x2="47.9" y2="60.9"/>
  <line class="st7" x1="40.1" y1="56.7" x2="43.8" y2="56.7"/>
  <line class="st10" x1="18.9" y1="65.1" x2="65.5" y2="65.1"/>
  <line class="st10" x1="18.9" y1="69.3" x2="65.5" y2="69.3"/>
  <line class="st0" x1="22.1" y1="69.3" x2="27.2" y2="69.3"/>
  <line class="st2" x1="22.1" y1="65.1" x2="26" y2="65.1"/>
  <line class="st9" x1="53.8" y1="69.3" x2="65" y2="69.3"/>
  <line class="st14" x1="55" y1="65.1" x2="65" y2="65.1"/>
  <line class="st8" x1="29.6" y1="69.3" x2="33.9" y2="69.3"/>
  <line class="st7" x1="40" y1="69.3" x2="47.8" y2="69.3"/>
  <line class="st7" x1="40" y1="65.1" x2="45.6" y2="65.1"/>
  <line class="st10" x1="19" y1="73.1" x2="65.6" y2="73.1"/>
  <line class="st10" x1="19" y1="77.3" x2="65.6" y2="77.3"/>
  <line class="st10" x1="19" y1="81.6" x2="65.6" y2="81.6"/>
  <line class="st0" x1="22.2" y1="73.1" x2="25.5" y2="73.1"/>
  <line class="st0" x1="22.2" y1="81.6" x2="25.5" y2="81.6"/>
  <line class="st2" x1="22.2" y1="77.3" x2="26.1" y2="77.3"/>
  <line class="st9" x1="51.9" y1="73.1" x2="65.1" y2="73.1"/>
  <line class="st9" x1="51.9" y1="81.6" x2="65.1" y2="81.6"/>
  <line class="st14" x1="56.5" y1="77.3" x2="65.1" y2="77.3"/>
  <line class="st8" x1="29.7" y1="73.1" x2="36.3" y2="73.1"/>
  <line class="st8" x1="29.7" y1="81.6" x2="36.3" y2="81.6"/>
  <line class="st7" x1="40.1" y1="73.1" x2="47.9" y2="73.1"/>
  <line class="st7" x1="40.1" y1="81.6" x2="47.9" y2="81.6"/>
  <line class="st7" x1="40.1" y1="77.3" x2="45.6" y2="77.3"/>
  <line class="st10" x1="18.9" y1="85.7" x2="65.5" y2="85.7"/>
  <line class="st10" x1="18.9" y1="90" x2="65.5" y2="90"/>
  <line class="st0" x1="22.1" y1="90" x2="25.4" y2="90"/>
  <line class="st2" x1="22.1" y1="85.7" x2="26" y2="85.7"/>
  <line class="st9" x1="51.8" y1="90" x2="65" y2="90"/>
  <line class="st14" x1="54.5" y1="85.7" x2="65" y2="85.7"/>
  <line class="st8" x1="29.6" y1="90" x2="33.8" y2="90"/>
  <line class="st7" x1="40" y1="90" x2="47.8" y2="90"/>
  <line class="st7" x1="40" y1="85.7" x2="46.5" y2="85.7"/>
  <line class="st8" x1="29.7" y1="56.6" x2="34" y2="56.6"/>
  <rect class="st15" x="16.6" y="49.7" width="49.7" height="44.6"/>
  <line class="st12" x1="65" y1="58" x2="109.4" y2="58"/>
  <line class="st12" x1="65" y1="66.8" x2="109.4" y2="66.8"/>
  <line class="st12" x1="65" y1="75.7" x2="109.4" y2="75.7"/>
  <line class="st13" x1="69.9" y1="58.1" x2="75" y2="58.1"/>
  <line class="st13" x1="69.9" y1="75.8" x2="75" y2="75.8"/>
  <line class="st13" x1="69.9" y1="66.8" x2="75" y2="66.8"/>
  <line class="st11" x1="82.7" y1="58.1" x2="96.9" y2="58.1"/>
  <line class="st11" x1="82.7" y1="75.8" x2="96.9" y2="75.8"/>
  <line class="st4" x1="82.7" y1="66.8" x2="90.5" y2="66.8"/>
  <line class="st1" x1="23.7" y1="105" x2="54.6" y2="88.9"/>
  <line class="st3" x1="59.9" y1="86.3" x2="64.2" y2="83.9"/>
  <path d="M23.5,115.1h3.6c.4,0,.9.2,1.3.6.4.4.6.8.6,1.4s0,.4-.2.5-.3.2-.5.2-.4,0-.5-.2-.2-.3-.2-.6-.3-.4-.5-.4h-3.5c-.2,0-.2,0-.2.2s0,.2.1.2l5.2,6.6c.2.3.4.7.4,1s-.2.8-.5,1.1c-.3.3-.6.5-1,.5h-3.8c-.5,0-.9-.2-1.3-.6s-.5-.8-.5-1.2.2-.8.7-.8.4,0,.5.2.2.3.2.5,0,.3.1.4.2.2.4.2h3.5c.2,0,.2,0,.2-.2s0-.1,0-.2l-5.2-6.6c-.2-.3-.4-.7-.4-1s.2-.8.5-1.1.7-.5,1.1-.5h0Z"/>
  <path d="M30.8,117v-1.9h7v1.9c0,.2,0,.4-.2.5s-.3.2-.5.2-.4,0-.5-.2-.2-.3-.2-.5v-.5h-1.4v8.9c0,.2,0,.4-.2.5s-.3.2-.5.2-.4,0-.5-.2-.2-.3-.2-.5v-8.9h-1.4v.5c0,.2,0,.4-.2.5s-.3.2-.5.2-.4,0-.5-.2-.2-.3-.2-.5h0Z"/>
  <path d="M39.7,125.5v-10.3h4.9c.6,0,1.1.2,1.5.6s.6.9.6,1.5v.8c0,.6-.2,1.1-.6,1.5-.4.4-.9.6-1.5.6h-.9l2.8,4.9c0,.1.1.3.1.4s0,.3-.2.5-.3.2-.5.2c-.3,0-.5-.1-.6-.4l-3.3-5.7h-1v5.3c0,.2,0,.4-.2.5-.1.1-.3.2-.5.2s-.4,0-.5-.2-.2-.3-.2-.5h0ZM41.1,118.8h3.5c.2,0,.4,0,.5-.2s.2-.3.2-.5v-.8c0-.2,0-.4-.2-.5s-.3-.2-.5-.2h-3.5v2.2h0Z"/>
  <path d="M50,125.4v3.1c0,.2,0,.4-.2.5-.1.1-.3.2-.5.2s-.4,0-.5-.2-.2-.3-.2-.5v-9.9c0-.2,0-.3.2-.5s.3-.2.5-.2.3,0,.5.2c.1.1.2.3.2.5v.4c.7-.8,1.3-1.1,2-1.1h.3c.5,0,1,.2,1.4.6l1.2,1c.5.4.8,1,.8,1.7v2.2c0,.7-.3,1.3-.8,1.7l-1.1,1c-.4.3-.8.5-1.4.5h-.3c-.5,0-1-.2-1.4-.6l-.5-.5h0ZM52,125.1h.4c.2,0,.3,0,.5-.3l1.1-1c.2-.1.3-.3.3-.6v-2.2c0-.2,0-.4-.3-.6l-1.2-1c-.1-.1-.3-.2-.4-.2h-.4c-.2,0-.4.1-.6.4l-1,1c-.2.2-.3.4-.3.6v1.8c0,.2,0,.4.3.6l1,1c.2.2.5.4.7.4h0Z"/>
  <path d="M57.5,125.5v-6.6c0-.2,0-.4.2-.5.1-.1.3-.2.5-.2s.4,0,.5.2.2.3.2.5v.9l1.1-1c.5-.4.9-.6,1.4-.6h1c.6,0,1.1.2,1.5.6s.6.9.6,1.5v.4c0,.2,0,.4-.2.5-.1.1-.3.2-.5.2s-.4,0-.5-.2-.2-.3-.2-.5v-.4c0-.2,0-.4-.2-.5s-.3-.2-.5-.2h-.9c-.2,0-.4,0-.7.3l-2,1.7v3.9c0,.2,0,.4-.2.5s-.3.2-.5.2-.4,0-.5-.2-.2-.3-.2-.5h0Z"/>
  <path d="M73.4,120.7v2.9c0,.6-.3,1.2-.9,1.7-.6.5-1.2.8-1.8.8h-1.6c-.6,0-1.2-.3-1.8-.8s-.9-1.1-.9-1.7v-2.9c0-.6.3-1.2.8-1.7s1.2-.8,1.8-.8h1.6c.6,0,1.2.2,1.8.8s.9,1.1.9,1.8h0ZM67.8,120.7v2.8c0,.2,0,.5.3.6l.5.4c.1,0,.3.2.5.2h1.6c.2,0,.4,0,.7-.3l.4-.4c.2-.1.3-.3.3-.6v-2.8c0-.3,0-.5-.3-.6l-.5-.4c-.2-.1-.4-.2-.6-.2h-1.4c-.3,0-.6,0-.7.2l-.5.4c-.2.1-.3.3-.3.6h0Z"/>
  <path d="M78.5,119.6v5.9c0,.2,0,.4-.2.5-.1.1-.3.2-.5.2s-.4,0-.5-.2c-.1-.1-.2-.3-.2-.5v-5.9h-.7c-.2,0-.4,0-.5-.2s-.2-.3-.2-.5,0-.3.2-.5c.1-.1.3-.2.5-.2h.7v-.5c0-.7.2-1.3.7-1.8.5-.5,1.1-.7,1.8-.7h1.6c.2,0,.4,0,.5.2s.2.3.2.5,0,.3-.2.5-.3.2-.5.2h-1.6c-.3,0-.6,0-.8.3s-.3.5-.3.8v.5h1.4c.2,0,.3,0,.5.2s.2.3.2.5,0,.3-.2.5-.3.2-.5.2h-1.4,0Z"/>
  <path d="M89.9,126.2h-4.2c-.2,0-.4,0-.5-.2s-.2-.3-.2-.5,0-.3.2-.5c.1-.1.3-.2.5-.2h1.4v-5.2h-1.4c-.2,0-.4,0-.5-.2s-.2-.3-.2-.5,0-.4.2-.5c.1-.1.3-.2.5-.2h2.1c.2,0,.4,0,.5.2.1.1.2.3.2.5v5.9h1.4c.2,0,.4,0,.5.2.1.1.2.3.2.5s0,.4-.2.5-.3.2-.5.2h0ZM87,114.5h.7c.2,0,.4,0,.5.2s.2.3.2.5v.6c0,.2,0,.4-.2.5-.1.1-.3.2-.5.2h-.8c-.2,0-.4,0-.5-.2-.1-.1-.2-.3-.2-.5v-.6c0-.2,0-.4.2-.5s.3-.2.5-.2h0Z"/>
  <path d="M98.8,126.2h-4.2c-.2,0-.4,0-.5-.2-.1-.1-.2-.3-.2-.5s0-.3.2-.5c.1-.1.3-.2.5-.2h1.4v-8.2h-1.4c-.2,0-.4,0-.5-.2s-.2-.3-.2-.5,0-.4.2-.5.3-.2.5-.2h2.1c.2,0,.3,0,.5.2s.2.3.2.5v8.9h1.4c.2,0,.3,0,.5.2s.2.3.2.5,0,.4-.2.5c-.1.1-.3.2-.5.2h0Z"/>
  <path d="M109.1,120.8v1.7c0,.2,0,.3-.2.5s-.3.2-.5.2h-4.9v.4c0,.2,0,.4.3.6l.4.3c.2.2.4.3.6.3h3.6c.2,0,.3,0,.5.2s.2.3.2.5,0,.3-.2.5-.3.2-.5.2h-3.7c-.2,0-.5,0-.8-.2s-.5-.2-.6-.3l-.6-.6c-.2-.2-.4-.4-.5-.7s-.2-.5-.2-.8v-3.2c0-.2,0-.4.2-.7s.3-.6.5-.7l.6-.5c.4-.3.8-.5,1.3-.5h2c.5,0,1,.2,1.4.6l.5.5c.4.3.6.8.6,1.5h0ZM103.5,120.7v1.1h4.2v-1c0-.3,0-.5-.2-.6l-.4-.4c-.2-.2-.4-.3-.6-.3h-1.8c-.2,0-.4,0-.6.2l-.4.3c-.2.1-.3.3-.3.5h0Z"/>
  <path d="M111,125.5v-6.6c0-.2,0-.4.2-.5.1-.1.3-.2.5-.2s.4,0,.5.2.2.3.2.5v.9l1.1-1c.5-.4.9-.6,1.4-.6h1c.6,0,1.1.2,1.5.6s.6.9.6,1.5v.4c0,.2,0,.4-.2.5-.1.1-.3.2-.5.2s-.4,0-.5-.2-.2-.3-.2-.5v-.4c0-.2,0-.4-.2-.5s-.3-.2-.5-.2h-.9c-.2,0-.4,0-.7.3l-2,1.7v3.9c0,.2,0,.4-.2.5s-.3.2-.5.2-.4,0-.5-.2-.2-.3-.2-.5h0Z"/>
  <circle class="st3" cx="94.2" cy="67.8" r="30.2"/>
  <path class="st12" d="M82,88.2c1.5,1.2,4.2,2.3,8.8,3.3,4.3.9,8.6-.3,10.4-.8,1.9-.6,4.6-1.7,7.4-3.8,3.4-2.6,5.5-5.5,6.5-7.4"/>
  <polygon class="st5" points="139.2 46.9 73.5 8.9 7.7 46.9 7.7 122.8 73.5 160.8 139.2 122.8 139.2 46.9"/>
  <path d="M121,125.9l-2.8-13.8,6.6-1.3c.8-.2,1.5,0,2.1.4s1.1,1,1.2,1.8l.2,1.1c.2.8,0,1.5-.4,2.2-.4.7-1,1.1-1.8,1.2l-1.2.2,5.1,5.8c.2.2.3.4.3.5s0,.5-.2.7-.4.3-.6.4c-.4,0-.7,0-.9-.3l-5.8-6.7-1.3.3,1.4,7.1c0,.3,0,.5-.1.7-.1.2-.4.3-.6.4s-.5,0-.7-.1-.3-.3-.4-.6h0ZM121.1,116.6l4.7-.9c.3,0,.5-.2.6-.4s.2-.5.1-.7l-.2-1.1c0-.3-.2-.5-.4-.6s-.5-.2-.7-.1l-4.7.9.6,2.9h0Z"/>
</svg>